<svg xmlns="http://www.w3.org/2000/svg" width="19.147" height="19.147" viewBox="0 0 19.147 19.147">
  <path id="Icon_fa-brands-square-twitter" data-name="Icon fa-brands-square-twitter" d="M2.735,2.25A2.738,2.738,0,0,0,0,4.985V18.662A2.738,2.738,0,0,0,2.735,21.4H16.412a2.738,2.738,0,0,0,2.735-2.735V4.985A2.738,2.738,0,0,0,16.412,2.25ZM15.014,9.4a7.921,7.921,0,0,1-7.975,7.975,7.938,7.938,0,0,1-4.3-1.257,5.905,5.905,0,0,0,.675.034,5.62,5.62,0,0,0,3.479-1.2,2.807,2.807,0,0,1-2.62-1.945,3.021,3.021,0,0,0,1.265-.051,2.8,2.8,0,0,1-2.244-2.752v-.034a2.8,2.8,0,0,0,1.265.355A2.813,2.813,0,0,1,3.637,9.52a2.826,2.826,0,0,1,.051-2.74A7.959,7.959,0,0,0,9.467,9.712a2.809,2.809,0,0,1,4.783-2.56,5.493,5.493,0,0,0,1.778-.675A2.8,2.8,0,0,1,14.8,8.02a5.578,5.578,0,0,0,1.616-.436,5.9,5.9,0,0,1-1.406,1.453C15.014,9.157,15.014,9.281,15.014,9.4Z" transform="translate(0 -2.25)" fill="#fff"/>
</svg>
